<svg width="32" height="32" viewBox="0 0 32 32" fill="none" xmlns="http://www.w3.org/2000/svg">
<path d="M27.25 16C27.25 22.2132 22.2132 27.25 16 27.25V28.75C23.0416 28.75 28.75 23.0416 28.75 16H27.25ZM16 27.25C9.7868 27.25 4.75 22.2132 4.75 16H3.25C3.25 23.0416 8.95837 28.75 16 28.75V27.25ZM4.75 16C4.75 9.7868 9.7868 4.75 16 4.75V3.25C8.95837 3.25 3.25 8.95837 3.25 16H4.75ZM16 4.75C22.2132 4.75 27.25 9.7868 27.25 16H28.75C28.75 8.95837 23.0416 3.25 16 3.25V4.75Z" fill="#202020"/>
<path d="M16.803 19.4697C16.5101 19.7626 16.5101 20.2374 16.803 20.5303C17.0959 20.8232 17.5708 20.8232 17.8637 20.5303L16.803 19.4697ZM21.3333 16L21.8637 16.5303C22.0043 16.3897 22.0833 16.1989 22.0833 16C22.0833 15.8011 22.0043 15.6103 21.8637 15.4697L21.3333 16ZM17.8637 11.4697C17.5708 11.1768 17.0959 11.1768 16.803 11.4697C16.5101 11.7626 16.5101 12.2374 16.803 12.5303L17.8637 11.4697ZM10.6667 15.25C10.2524 15.25 9.91666 15.5858 9.91666 16C9.91666 16.4142 10.2524 16.75 10.6667 16.75L10.6667 15.25ZM17.8637 20.5303L21.8637 16.5303L20.803 15.4697L16.803 19.4697L17.8637 20.5303ZM21.8637 15.4697L17.8637 11.4697L16.803 12.5303L20.803 16.5303L21.8637 15.4697ZM10.6667 16.75L21.3333 16.75V15.25L10.6667 15.25L10.6667 16.75Z" fill="#202020"/>
</svg>
