<svg width="34" height="46" viewBox="0 0 34 46" fill="none" xmlns="http://www.w3.org/2000/svg">
<path d="M9.69579 32.1542L0.541626 23L9.69579 13.8458L11.4291 15.6333L4.06246 23L11.4291 30.3667L9.69579 32.1542ZM2.97913 34.375H5.41663V38.5458H28.7083V34.375H31.1458V42.6083C31.1458 43.475 30.8388 44.2153 30.225 44.8292C29.6111 45.4431 28.8708 45.75 28.0041 45.75H6.12079C5.25413 45.75 4.51385 45.4431 3.89996 44.8292C3.28607 44.2153 2.97913 43.475 2.97913 42.6083V34.375ZM5.41663 11.1375H2.97913V3.39167C2.97913 2.525 3.28607 1.78472 3.89996 1.17083C4.51385 0.556944 5.25413 0.25 6.12079 0.25H28.0041C28.8708 0.25 29.6111 0.556944 30.225 1.17083C30.8388 1.78472 31.1458 2.525 31.1458 3.39167V11.1375H28.7083V7.45417H5.41663V11.1375ZM5.41663 40.9833V42.6083C5.41663 42.7889 5.48885 42.9514 5.63329 43.0958C5.77774 43.2403 5.94024 43.3125 6.12079 43.3125H28.0041C28.1847 43.3125 28.3472 43.2403 28.4916 43.0958C28.6361 42.9514 28.7083 42.7889 28.7083 42.6083V40.9833H5.41663ZM5.41663 5.01667H28.7083V3.39167C28.7083 3.21111 28.6361 3.04861 28.4916 2.90417C28.3472 2.75972 28.1847 2.6875 28.0041 2.6875H6.12079C5.94024 2.6875 5.77774 2.75972 5.63329 2.90417C5.48885 3.04861 5.41663 3.21111 5.41663 3.39167V5.01667ZM24.4291 32.1542L22.6958 30.3667L30.0625 23L22.6958 15.6333L24.4291 13.8458L33.5833 23L24.4291 32.1542ZM5.41663 5.01667V2.6875V5.01667ZM5.41663 40.9833V43.3125V42.6083V40.9833Z" fill="black"/>
</svg>
