<svg width="39" height="38" viewBox="0 0 39 38" fill="none" xmlns="http://www.w3.org/2000/svg">
<path d="M3.24997 37.4168C2.13052 37.4168 1.36316 36.8481 0.947886 35.7106C0.532608 34.5731 0.631913 33.6432 1.2458 32.921L14.5708 17.5918V3.021H11.4833C11.1583 3.021 10.8784 2.90364 10.6437 2.66891C10.409 2.43419 10.2916 2.15433 10.2916 1.82933C10.2916 1.46822 10.409 1.1703 10.6437 0.935579C10.8784 0.700857 11.1583 0.583496 11.4833 0.583496H27.5166C27.8416 0.583496 28.1215 0.700857 28.3562 0.935579C28.5909 1.1703 28.7083 1.46822 28.7083 1.82933C28.7083 2.15433 28.5909 2.43419 28.3562 2.66891C28.1215 2.90364 27.8416 3.021 27.5166 3.021H24.4291V17.5918L37.7541 32.921C38.4041 33.6432 38.5125 34.5731 38.0791 35.7106C37.6458 36.8481 36.8694 37.4168 35.75 37.4168H3.24997ZM2.76247 34.9793H36.2375L21.9916 18.5127V3.021H17.0083V18.5127L2.76247 34.9793Z" fill="black"/>
</svg>
