<svg width="39" height="44" viewBox="0 0 39 44" fill="none" xmlns="http://www.w3.org/2000/svg">
<path d="M25.8375 36.0832C24.3569 36.0832 23.1111 35.5776 22.1 34.5665C21.0889 33.5554 20.5833 32.3096 20.5833 30.829C20.5833 29.3485 21.0889 28.1026 22.1 27.0915C23.1111 26.0804 24.3569 25.5749 25.8375 25.5749C27.3181 25.5749 28.5639 26.0804 29.575 27.0915C30.5861 28.1026 31.0917 29.3485 31.0917 30.829C31.0917 32.3096 30.5861 33.5554 29.575 34.5665C28.5639 35.5776 27.3181 36.0832 25.8375 36.0832ZM3.25 43.6665C2.38333 43.6665 1.625 43.3415 0.975 42.6915C0.325 42.0415 0 41.2832 0 40.4165V6.83319C0 5.96652 0.325 5.20819 0.975 4.55819C1.625 3.90819 2.38333 3.58319 3.25 3.58319H6.77083V0.333191H10.2917V3.58319H28.7083V0.333191H32.2292V3.58319H35.75C36.6167 3.58319 37.375 3.90819 38.025 4.55819C38.675 5.20819 39 5.96652 39 6.83319V40.4165C39 41.2832 38.675 42.0415 38.025 42.6915C37.375 43.3415 36.6167 43.6665 35.75 43.6665H3.25ZM3.25 40.4165H35.75V17.1249H3.25V40.4165ZM3.25 13.8749H35.75V6.83319H3.25V13.8749ZM3.25 13.8749V6.83319V13.8749Z" fill="#202020"/>
</svg>
