<svg width="39" height="39" viewBox="0 0 39 39" fill="none" xmlns="http://www.w3.org/2000/svg">
<path d="M0.920827 37.525V30.05L11.2667 19.7042L1.19166 9.575C0.938882 9.32222 0.749299 9.04236 0.62291 8.73542C0.496521 8.42847 0.433327 8.13056 0.433327 7.84167C0.433327 7.55278 0.496521 7.25486 0.62291 6.94792C0.749299 6.64097 0.938882 6.36111 1.19166 6.10833L6.17499 1.125C6.42777 0.872222 6.70763 0.673611 7.01458 0.529166C7.32152 0.384722 7.61944 0.3125 7.90833 0.3125C8.19722 0.3125 8.50416 0.384722 8.82916 0.529166C9.15416 0.673611 9.42499 0.872222 9.64166 1.125L19.825 11.2542L30.225 0.854167C30.3694 0.709722 30.541 0.610417 30.7396 0.55625C30.9382 0.502083 31.1278 0.475 31.3083 0.475C31.525 0.475 31.7236 0.502083 31.9042 0.55625C32.0847 0.610417 32.2653 0.709722 32.4458 0.854167L37.6458 6.10833C37.7903 6.25278 37.8986 6.41528 37.9708 6.59583C38.043 6.77639 38.0792 6.975 38.0792 7.19167C38.0792 7.40833 38.043 7.60694 37.9708 7.7875C37.8986 7.96806 37.7903 8.13056 37.6458 8.275L27.2458 18.675L37.4292 28.8583C37.6458 29.075 37.8264 29.3458 37.9708 29.6708C38.1153 29.9958 38.1875 30.3028 38.1875 30.5917C38.1875 30.8806 38.1153 31.1785 37.9708 31.4854C37.8264 31.7924 37.6458 32.0722 37.4292 32.325L32.3917 37.2542C32.175 37.5069 31.9132 37.6965 31.6062 37.8229C31.2993 37.9493 30.9833 38.0125 30.6583 38.0125C30.3694 38.0125 30.0715 37.9493 29.7646 37.8229C29.4576 37.6965 29.1958 37.5069 28.9792 37.2542L18.7958 27.1792L8.39583 37.525H0.920827ZM13.0542 17.9708L18.0917 12.9875L13.7042 8.6L11.1583 11.2L9.42499 9.46667L11.9708 6.86667L7.90833 2.80417L2.92499 7.84167L13.0542 17.9708ZM30.6042 35.575L35.6417 30.5375L31.5792 26.475L28.9792 29.075L27.2458 27.3417L29.8458 24.7417L25.4583 20.4083L20.475 25.4458L30.6042 35.575ZM3.41249 35.0875H7.31249L29.5208 12.9333L25.5667 8.97917L3.41249 31.1333V35.0875ZM31.2542 11.2L35.2083 7.24583L31.2542 3.29167L27.3 7.24583L31.2542 11.2Z" fill="black"/>
</svg>
